<svg width="20" height="20" viewBox="0 0 20 20" fill="none" xmlns="http://www.w3.org/2000/svg">
<path fill-rule="evenodd" clip-rule="evenodd" d="M19.7997 12.7999L19.7997 12.8H16C14.2327 12.8 12.8 14.2327 12.8 16V19.7997L12.7999 19.7991C12.5342 19.8263 12.2672 19.84 12 19.84L12 18.4C12 17.4035 12 16.6286 12.0384 16C12.0863 15.2156 12.1939 14.6591 12.436 14.184C12.8195 13.4314 13.4314 12.8195 14.184 12.436C14.6591 12.1939 15.2156 12.0863 16 12.0384C16.6286 12 17.4035 12 18.4 12H19.84C19.84 12.2672 19.8263 12.5342 19.7991 12.7999L19.7997 12.7999Z" fill="black"/>
<path fill-rule="evenodd" clip-rule="evenodd" d="M13.6 0.8H6.4C5.26669 0.8 4.46483 0.800622 3.83795 0.85184C3.22042 0.902295 2.84348 0.997833 2.54723 1.14878C1.94511 1.45557 1.45557 1.94511 1.14878 2.54723C0.997833 2.84348 0.902295 3.22042 0.85184 3.83795C0.800622 4.46483 0.8 5.26669 0.8 6.4V13.6C0.8 14.7333 0.800622 15.5352 0.85184 16.162C0.902295 16.7796 0.997833 17.1565 1.14878 17.4528C1.45557 18.0549 1.94511 18.5444 2.54723 18.8512C2.84348 19.0022 3.22042 19.0977 3.83795 19.1482C4.46483 19.1994 5.26669 19.2 6.4 19.2H7.2C9.45341 19.2 11.0954 19.1994 12.3892 19.0937C13.6738 18.9887 14.5447 18.7842 15.2687 18.4152C16.6235 17.725 17.725 16.6235 18.4152 15.2687C18.7842 14.5447 18.9887 13.6738 19.0937 12.3892C19.1994 11.0954 19.2 9.45341 19.2 7.2V6.4C19.2 5.26669 19.1994 4.46483 19.1482 3.83795C19.0977 3.22042 19.0022 2.84348 18.8512 2.54723C18.5444 1.94511 18.0549 1.45557 17.4528 1.14878C17.1565 0.997833 16.7796 0.902295 16.162 0.85184C15.5352 0.800622 14.7333 0.8 13.6 0.8ZM0.435974 2.18404C0 3.03968 0 4.15979 0 6.4V13.6C0 15.8402 0 16.9603 0.435974 17.816C0.819467 18.5686 1.43139 19.1805 2.18404 19.564C3.03968 20 4.15979 20 6.4 20H7.2C11.6804 20 13.9206 20 15.6319 19.1281C17.1372 18.3611 18.3611 17.1372 19.1281 15.6319C20 13.9206 20 11.6804 20 7.2V6.4C20 4.15979 20 3.03968 19.564 2.18404C19.1805 1.43139 18.5686 0.819467 17.816 0.435974C16.9603 0 15.8402 0 13.6 0H6.4C4.15979 0 3.03968 0 2.18404 0.435974C1.43139 0.819467 0.819467 1.43139 0.435974 2.18404Z" fill="black"/>
</svg>
