<?xml version="1.0" encoding="UTF-8"?>
<svg height="600" width="800" xmlns="http://www.w3.org/2000/svg" xmlns:xlink="http://www.w3.org/1999/xlink">
    <g id="Notes" font-family="'LucidaGrande', 'Lucida Grande', sans-serif" font-size="13">
        <rect fill="white" height="600.0" width="800.0" x="0.0" y="0.0" />
        <g font-size="13">
            <text x="18.0" y="176.0">Small</text>
            <text x="18.0" y="376.0">Medium</text>
            <text x="18.0" y="576.0">Large</text>
        </g>
        <g font-size="9">
            <text x="250.0" y="30.0">Ultralight</text>
            <text x="450.0" y="30.0">Regular</text>
            <text x="650.0" y="30.0">Black</text>
            <text id="template-version" fill="#505050" text-anchor="end" x="785.0" y="575.0">Template v.3.0</text>
            <a href="https://github.com/swhitty/SwiftDraw">
                <text fill="#505050" text-anchor="end" x="785.0" y="590.0">https://github.com/swhitty/SwiftDraw</text>
            </a>
        </g>
    </g>
    <g id="Guides" stroke="rgb(39, 170, 225)" stroke-width="0.5">
        <path id="Capline-S" d="M18,76 l800,0" />
        <path id="H-reference" d="M85,145.755 L87.685,145.755 L113.369,79.287 L114.052,79.287 L114.052,76 L112.148,76 L85,145.755 Z M95.693,121.536 L130.996,121.536 L130.263,119.313 L96.474,119.313 L95.693,121.536 Z M139.15,145.755 L141.787,145.755 L114.638,76 L113.466,76 L113.466,79.287 L139.15,145.755 Z" stroke="none" />
        <path id="Baseline-S" d="M18,146 l800,0" />
        <path id="left-margin-Ultralight-S" d="M220,56 l0,110" />
        <path id="right-margin-Ultralight-S" d="M310,56 l0,110" />
        <path id="left-margin-Regular-S" d="M420,56 l0,110" />
        <path id="right-margin-Regular-S" d="M510,56 l0,110" />
        <path id="left-margin-Black-S" d="M620,56 l0,110" />
        <path id="right-margin-Black-S" d="M710,56 l0,110" />
        <path id="Capline-M" d="M18,276 l800,0" />
        <path id="Baseline-M" d="M18,346 l800,0" />
        <path id="Capline-L" d="M18,476 l800,0" />
        <path id="Baseline-L" d="M18,546 l800,0" />
    </g>
    <g id="Symbols">
        <g id="Ultralight-S">
            <path d="M277.599,76 C277.709,76 277.817,76 277.925,76 L278.85,76 C282.498,76.005 284.284,76.03 285.818,76.121 L286.065,76.137 C286.187,76.145 286.309,76.153 286.43,76.162 L286.672,76.181 L286.794,76.191 C289.211,76.388 290.904,76.787 292.354,77.526 C294.989,78.868 297.13,81.01 298.473,83.644 C299.212,85.095 299.61,86.787 299.808,89.204 C299.811,89.245 299.814,89.285 299.817,89.326 L299.845,89.69 C299.963,91.349 299.993,93.105 299.998,97.149 L299.998,98.074 L299.998,98.4 L299.998,112.399 C299.998,112.532 299.998,112.663 299.998,112.793 L299.998,113.922 C299.992,120.845 299.94,123.409 299.712,126.192 C299.416,129.818 298.818,132.356 297.71,134.532 C295.696,138.484 292.484,141.696 288.532,143.71 C286.356,144.818 283.818,145.416 280.192,145.712 C277.409,145.94 274.845,145.992 267.922,145.998 L266.793,145.998 L266.399,145.998 L252.4,145.998 C252.289,145.998 252.181,145.998 252.074,145.998 L251.149,145.998 C247.006,145.993 245.265,145.961 243.568,145.836 L243.326,145.817 L243.205,145.808 C240.787,145.61 239.095,145.212 237.644,144.473 C235.01,143.13 232.868,140.989 231.526,138.354 C230.787,136.904 230.388,135.211 230.191,132.794 C230.187,132.753 230.184,132.713 230.181,132.673 L230.162,132.43 C230.153,132.309 230.145,132.187 230.137,132.065 L230.121,131.818 C230.03,130.284 230.005,128.498 230,124.85 L230,123.925 L230,123.599 L230,98.4 C230,98.289 230,98.181 230,98.074 L230,97.149 C230.005,93.5 230.03,91.714 230.121,90.18 L230.137,89.934 C230.145,89.811 230.153,89.69 230.162,89.568 L230.181,89.326 L230.191,89.205 C230.388,86.787 230.787,85.095 231.526,83.644 C232.868,81.01 235.01,78.868 237.644,77.526 C239.095,76.787 240.787,76.388 243.205,76.191 C243.245,76.187 243.286,76.184 243.326,76.181 L243.568,76.162 C243.69,76.153 243.811,76.145 243.934,76.137 L244.18,76.121 C245.714,76.03 247.5,76.005 251.149,76 L252.074,76 L252.4,76 L277.599,76 Z M278.848,79.501 L251.151,79.501 C247.218,79.505 245.506,79.534 243.953,79.644 L243.721,79.661 L243.49,79.679 C241.489,79.842 240.221,80.141 239.233,80.644 C237.257,81.651 235.651,83.257 234.644,85.233 C234.141,86.221 233.842,87.489 233.679,89.49 L233.661,89.721 L233.644,89.953 C233.534,91.506 233.505,93.218 233.501,97.151 L233.501,124.848 C233.505,128.781 233.534,130.492 233.644,132.046 L233.661,132.278 L233.679,132.509 C233.842,134.509 234.141,135.778 234.644,136.766 C235.651,138.741 237.257,140.347 239.233,141.354 C240.221,141.857 241.489,142.156 243.49,142.319 L243.721,142.338 L243.953,142.355 C245.506,142.464 247.217,142.493 251.151,142.498 L252.074,142.499 L252.4,142.499 L266.399,142.499 C266.53,142.499 266.659,142.499 266.787,142.499 L267.901,142.499 C274.128,142.493 276.774,142.45 279.208,142.277 L279.488,142.257 C279.627,142.246 279.767,142.236 279.907,142.224 C283.116,141.962 285.231,141.464 286.944,140.591 C290.236,138.913 292.913,136.236 294.591,132.944 C295.464,131.231 295.962,129.116 296.224,125.907 C296.236,125.767 296.246,125.627 296.257,125.488 L296.277,125.208 C296.45,122.774 296.493,120.128 296.499,113.901 L296.499,112.787 L296.499,112.399 L296.499,98.4 C296.499,98.29 296.499,98.181 296.499,98.074 L296.498,97.151 C296.493,93.217 296.464,91.506 296.355,89.953 L296.338,89.721 L296.319,89.49 C296.156,87.489 295.857,86.221 295.354,85.233 C294.347,83.257 292.741,81.651 290.766,80.644 C289.778,80.141 288.509,79.842 286.509,79.679 L286.278,79.661 L286.046,79.644 C284.492,79.534 282.781,79.505 278.848,79.501 Z" />
            <path d="M300,117.999 L299.998,119.751 C299.989,126.087 299.868,128.251 299.283,130.434 C297.341,137.681 291.681,143.341 284.434,145.283 C282.251,145.868 280.087,145.989 273.751,145.998 L271.999,146 L271.999,140.399 C271.999,140.289 271.999,140.18 271.999,140.073 L272,139.148 C272.004,135.005 272.036,133.264 272.161,131.567 L272.18,131.325 L272.19,131.204 C272.387,128.786 272.786,127.094 273.525,125.643 C274.867,123.009 277.009,120.867 279.643,119.525 C281.094,118.786 282.786,118.387 285.204,118.19 C285.244,118.187 285.285,118.183 285.325,118.18 L285.689,118.153 C287.348,118.035 289.104,118.004 293.148,118 L294.073,117.999 L294.399,117.999 L300,117.999 Z M296.491,121.499 L293.15,121.5 C289.216,121.504 287.505,121.533 285.952,121.643 L285.72,121.66 L285.489,121.678 C283.488,121.842 282.22,122.14 281.232,122.643 C279.256,123.65 277.65,125.256 276.643,127.232 C276.14,128.22 275.842,129.488 275.678,131.489 L275.66,131.72 L275.643,131.952 C275.533,133.505 275.504,135.216 275.5,139.15 L275.499,142.491 L275.604,142.491 C280.094,142.461 281.879,142.33 283.429,141.928 L283.528,141.902 C289.567,140.284 294.284,135.567 295.902,129.528 C296.324,127.954 296.46,126.189 296.491,121.604 L296.491,121.499 Z" />
        </g>
        <g id="Regular-S">
            <path d="M477.599,76 C477.709,76 477.818,76 477.925,76 L478.85,76 C482.499,76.005 484.285,76.03 485.818,76.121 L486.065,76.137 C486.188,76.145 486.309,76.153 486.43,76.162 L486.673,76.181 L486.794,76.191 C489.211,76.388 490.904,76.787 492.354,77.526 C494.989,78.868 497.13,81.01 498.473,83.644 C499.212,85.095 499.61,86.787 499.808,89.204 C499.811,89.245 499.814,89.285 499.818,89.326 L499.845,89.69 C499.963,91.349 499.993,93.105 499.998,97.149 L499.998,98.074 L499.998,98.4 L499.998,112.399 C499.998,112.532 499.998,112.663 499.998,112.793 L499.998,113.922 C499.992,120.845 499.94,123.409 499.712,126.192 C499.416,129.818 498.818,132.356 497.71,134.532 C495.696,138.484 492.484,141.696 488.533,143.71 C486.356,144.818 483.818,145.416 480.192,145.712 C477.409,145.94 474.845,145.992 467.922,145.998 L466.793,145.998 L466.399,145.998 L452.4,145.998 C452.289,145.998 452.181,145.998 452.074,145.998 L451.149,145.998 C447.006,145.993 445.265,145.961 443.568,145.836 L443.326,145.817 L443.205,145.808 C440.787,145.61 439.095,145.212 437.644,144.473 C435.01,143.13 432.868,140.989 431.526,138.354 C430.787,136.904 430.388,135.211 430.191,132.794 C430.187,132.753 430.184,132.713 430.181,132.673 L430.162,132.43 C430.153,132.309 430.145,132.187 430.137,132.065 L430.121,131.818 C430.03,130.284 430.005,128.498 430,124.85 L430,123.925 L430,123.599 L430,98.4 C430,98.289 430,98.181 430,98.074 L430,97.149 C430.005,93.5 430.03,91.714 430.121,90.18 L430.137,89.934 C430.145,89.811 430.153,89.69 430.162,89.568 L430.181,89.326 L430.191,89.205 C430.388,86.787 430.787,85.095 431.526,83.644 C432.868,81.01 435.01,78.868 437.644,77.526 C439.095,76.787 440.787,76.388 443.205,76.191 C443.245,76.187 443.286,76.184 443.326,76.181 L443.568,76.162 C443.69,76.153 443.811,76.145 443.934,76.137 L444.18,76.121 C445.714,76.03 447.5,76.005 451.149,76 L452.074,76 L452.4,76 L477.599,76 Z M478.848,79.501 L451.151,79.501 C447.218,79.505 445.507,79.534 443.953,79.644 L443.721,79.661 L443.49,79.679 C441.489,79.842 440.221,80.141 439.233,80.644 C437.257,81.651 435.651,83.257 434.644,85.233 C434.141,86.221 433.842,87.489 433.679,89.49 L433.661,89.721 L433.644,89.953 C433.534,91.506 433.505,93.218 433.501,97.151 L433.501,124.848 C433.505,128.781 433.534,130.492 433.644,132.046 L433.661,132.278 L433.679,132.509 C433.842,134.509 434.141,135.778 434.644,136.766 C435.651,138.741 437.257,140.347 439.233,141.354 C440.221,141.857 441.489,142.156 443.49,142.319 L443.721,142.338 L443.953,142.355 C445.506,142.464 447.217,142.493 451.151,142.498 L452.074,142.499 L452.4,142.499 L466.399,142.499 C466.53,142.499 466.659,142.499 466.787,142.499 L467.901,142.499 C474.128,142.493 476.774,142.45 479.208,142.277 L479.488,142.257 C479.627,142.246 479.767,142.236 479.907,142.224 C483.116,141.962 485.231,141.464 486.944,140.591 C490.236,138.913 492.913,136.236 494.591,132.944 C495.464,131.231 495.962,129.116 496.224,125.907 C496.236,125.767 496.246,125.627 496.257,125.488 L496.277,125.208 C496.45,122.774 496.493,120.128 496.499,113.901 L496.499,112.787 L496.499,112.399 L496.499,98.4 C496.499,98.29 496.499,98.181 496.499,98.074 L496.498,97.151 C496.493,93.217 496.464,91.506 496.355,89.953 L496.338,89.721 L496.319,89.49 C496.156,87.489 495.857,86.221 495.354,85.233 C494.347,83.257 492.741,81.651 490.766,80.644 C489.778,80.141 488.509,79.842 486.509,79.679 L486.278,79.661 L486.046,79.644 C484.492,79.534 482.781,79.505 478.848,79.501 Z" />
            <path d="M500,117.999 L499.998,119.751 C499.989,126.087 499.868,128.251 499.283,130.434 C497.341,137.681 491.681,143.341 484.434,145.283 C482.251,145.868 480.087,145.989 473.751,145.998 L471.999,146 L471.999,140.399 C471.999,140.289 471.999,140.18 471.999,140.073 L472,139.148 C472.004,135.005 472.036,133.264 472.161,131.567 L472.18,131.325 L472.19,131.204 C472.387,128.786 472.786,127.094 473.525,125.643 C474.867,123.009 477.009,120.867 479.643,119.525 C481.094,118.786 482.786,118.387 485.204,118.19 C485.244,118.187 485.285,118.183 485.325,118.18 L485.689,118.153 C487.348,118.035 489.104,118.004 493.148,118 L494.073,117.999 L494.399,117.999 L500,117.999 Z M496.491,121.499 L493.15,121.5 C489.216,121.504 487.505,121.533 485.952,121.643 L485.72,121.66 L485.489,121.678 C483.488,121.842 482.22,122.14 481.232,122.643 C479.256,123.65 477.65,125.256 476.643,127.232 C476.14,128.22 475.842,129.488 475.678,131.489 L475.66,131.72 L475.643,131.952 C475.533,133.505 475.504,135.216 475.5,139.15 L475.499,142.491 L475.604,142.491 C480.094,142.461 481.879,142.33 483.429,141.928 L483.528,141.902 C489.567,140.284 494.284,135.567 495.902,129.528 C496.324,127.954 496.46,126.189 496.491,121.604 L496.491,121.499 Z" />
        </g>
        <g id="Black-S">
            <path d="M677.599,76 C677.709,76 677.818,76 677.925,76 L678.85,76 C682.499,76.005 684.284,76.03 685.818,76.121 L686.065,76.137 C686.188,76.145 686.309,76.153 686.43,76.162 L686.672,76.181 L686.794,76.191 C689.211,76.388 690.904,76.787 692.354,77.526 C694.989,78.868 697.13,81.01 698.473,83.644 C699.212,85.095 699.61,86.787 699.808,89.204 C699.811,89.245 699.814,89.285 699.818,89.326 L699.845,89.69 C699.963,91.349 699.993,93.105 699.998,97.149 L699.998,98.074 L699.998,98.4 L699.998,112.399 C699.998,112.532 699.998,112.663 699.998,112.793 L699.998,113.922 C699.992,120.845 699.94,123.409 699.712,126.192 C699.416,129.818 698.818,132.356 697.71,134.532 C695.696,138.484 692.484,141.696 688.532,143.71 C686.356,144.818 683.818,145.416 680.192,145.712 C677.409,145.94 674.845,145.992 667.922,145.998 L666.793,145.998 L666.399,145.998 L652.4,145.998 C652.289,145.998 652.181,145.998 652.074,145.998 L651.149,145.998 C647.006,145.993 645.265,145.961 643.568,145.836 L643.326,145.817 L643.205,145.808 C640.787,145.61 639.095,145.212 637.644,144.473 C635.01,143.13 632.868,140.989 631.526,138.354 C630.787,136.904 630.388,135.211 630.191,132.794 C630.187,132.753 630.184,132.713 630.181,132.673 L630.162,132.43 C630.153,132.309 630.145,132.187 630.137,132.065 L630.122,131.818 C630.03,130.284 630.005,128.498 630,124.85 L630,123.925 L630,123.599 L630,98.4 C630,98.289 630,98.181 630,98.074 L630,97.149 C630.005,93.5 630.03,91.714 630.122,90.18 L630.137,89.934 C630.145,89.811 630.153,89.69 630.162,89.568 L630.181,89.326 L630.191,89.205 C630.388,86.787 630.787,85.095 631.526,83.644 C632.868,81.01 635.01,78.868 637.644,77.526 C639.095,76.787 640.787,76.388 643.205,76.191 C643.245,76.187 643.286,76.184 643.326,76.181 L643.568,76.162 C643.69,76.153 643.811,76.145 643.934,76.137 L644.18,76.121 C645.714,76.03 647.5,76.005 651.149,76 L652.074,76 L652.4,76 L677.599,76 Z M678.848,79.501 L651.151,79.501 C647.218,79.505 645.507,79.534 643.953,79.644 L643.721,79.661 L643.49,79.679 C641.489,79.842 640.221,80.141 639.233,80.644 C637.257,81.651 635.651,83.257 634.644,85.233 C634.141,86.221 633.842,87.489 633.679,89.49 L633.661,89.721 L633.644,89.953 C633.534,91.506 633.505,93.218 633.501,97.151 L633.501,124.848 C633.505,128.781 633.534,130.492 633.644,132.046 L633.661,132.278 L633.679,132.509 C633.842,134.509 634.141,135.778 634.644,136.766 C635.651,138.741 637.257,140.347 639.233,141.354 C640.221,141.857 641.489,142.156 643.49,142.319 L643.721,142.338 L643.953,142.355 C645.506,142.464 647.217,142.493 651.151,142.498 L652.074,142.499 L652.4,142.499 L666.399,142.499 C666.53,142.499 666.659,142.499 666.787,142.499 L667.901,142.499 C674.128,142.493 676.774,142.45 679.208,142.277 L679.488,142.257 C679.627,142.246 679.767,142.236 679.907,142.224 C683.116,141.962 685.231,141.464 686.944,140.591 C690.236,138.913 692.914,136.236 694.591,132.944 C695.464,131.231 695.962,129.116 696.224,125.907 C696.236,125.767 696.246,125.627 696.257,125.488 L696.277,125.208 C696.45,122.774 696.493,120.128 696.499,113.901 L696.499,112.787 L696.499,112.399 L696.499,98.4 C696.499,98.29 696.499,98.181 696.499,98.074 L696.498,97.151 C696.494,93.217 696.464,91.506 696.355,89.953 L696.338,89.721 L696.319,89.49 C696.156,87.489 695.857,86.221 695.354,85.233 C694.347,83.257 692.741,81.651 690.766,80.644 C689.778,80.141 688.509,79.842 686.509,79.679 L686.278,79.661 L686.046,79.644 C684.492,79.534 682.781,79.505 678.848,79.501 Z" />
            <path d="M700,117.999 L699.998,119.751 C699.989,126.087 699.868,128.251 699.283,130.434 C697.341,137.681 691.681,143.341 684.434,145.283 C682.251,145.868 680.087,145.989 673.751,145.998 L671.999,146 L671.999,140.399 C671.999,140.289 671.999,140.18 671.999,140.073 L672,139.148 C672.004,135.005 672.036,133.264 672.161,131.567 L672.18,131.325 L672.19,131.204 C672.387,128.786 672.786,127.094 673.525,125.643 C674.867,123.009 677.009,120.867 679.643,119.525 C681.094,118.786 682.786,118.387 685.204,118.19 C685.244,118.187 685.285,118.183 685.325,118.18 L685.689,118.153 C687.348,118.035 689.104,118.004 693.148,118 L694.073,117.999 L694.399,117.999 L700,117.999 Z M696.491,121.499 L693.15,121.5 C689.216,121.504 687.505,121.533 685.952,121.643 L685.72,121.66 L685.489,121.678 C683.488,121.842 682.22,122.14 681.232,122.643 C679.256,123.65 677.65,125.256 676.643,127.232 C676.14,128.22 675.842,129.488 675.678,131.489 L675.66,131.72 L675.643,131.952 C675.533,133.505 675.504,135.216 675.5,139.15 L675.499,142.491 L675.604,142.491 C680.094,142.461 681.879,142.33 683.43,141.928 L683.528,141.902 C689.567,140.284 694.284,135.567 695.902,129.528 C696.324,127.954 696.46,126.189 696.491,121.604 L696.491,121.499 Z" />
        </g>
    </g>
</svg>