<?xml version="1.0" encoding="UTF-8"?>
<svg height="600" width="800" xmlns="http://www.w3.org/2000/svg" xmlns:xlink="http://www.w3.org/1999/xlink">
    <g id="Notes" font-family="'LucidaGrande', 'Lucida Grande', sans-serif" font-size="13">
        <rect fill="white" height="600.0" width="800.0" x="0.0" y="0.0" />
        <g font-size="13">
            <text x="18.0" y="176.0">Small</text>
            <text x="18.0" y="376.0">Medium</text>
            <text x="18.0" y="576.0">Large</text>
        </g>
        <g font-size="9">
            <text x="250.0" y="30.0">Ultralight</text>
            <text x="450.0" y="30.0">Regular</text>
            <text x="650.0" y="30.0">Black</text>
            <text id="template-version" fill="#505050" text-anchor="end" x="785.0" y="575.0">Template v.3.0</text>
            <a href="https://github.com/swhitty/SwiftDraw">
                <text fill="#505050" text-anchor="end" x="785.0" y="590.0">https://github.com/swhitty/SwiftDraw</text>
            </a>
        </g>
    </g>
    <g id="Guides" stroke="rgb(39, 170, 225)" stroke-width="0.5">
        <path id="Capline-S" d="M18,76 l800,0" />
        <path id="H-reference" d="M85,145.755 L87.685,145.755 L113.369,79.287 L114.052,79.287 L114.052,76 L112.148,76 L85,145.755 Z M95.693,121.536 L130.996,121.536 L130.263,119.313 L96.474,119.313 L95.693,121.536 Z M139.15,145.755 L141.787,145.755 L114.638,76 L113.466,76 L113.466,79.287 L139.15,145.755 Z" stroke="none" />
        <path id="Baseline-S" d="M18,146 l800,0" />
        <path id="left-margin-Ultralight-S" d="M211,56 l0,110" />
        <path id="right-margin-Ultralight-S" d="M319,56 l0,110" />
        <path id="left-margin-Regular-S" d="M411,56 l0,110" />
        <path id="right-margin-Regular-S" d="M519,56 l0,110" />
        <path id="left-margin-Black-S" d="M611,56 l0,110" />
        <path id="right-margin-Black-S" d="M719,56 l0,110" />
        <path id="Capline-M" d="M18,276 l800,0" />
        <path id="Baseline-M" d="M18,346 l800,0" />
        <path id="Capline-L" d="M18,476 l800,0" />
        <path id="Baseline-L" d="M18,546 l800,0" />
    </g>
    <g id="Symbols">
        <g id="Ultralight-S">
            <path d="M279.194,81.194 C295.655,81.194 309,94.538 309,111 C309,127.462 295.655,140.806 279.194,140.806 L250.806,140.806 C234.345,140.806 221,127.462 221,111 C221,94.538 234.345,81.194 250.806,81.194 L279.194,81.194 Z M279.194,86.871 L250.806,86.871 C237.48,86.871 226.677,97.674 226.677,111 C226.677,124.326 237.48,135.129 250.806,135.129 L279.194,135.129 C292.52,135.129 303.323,124.326 303.323,111 C303.323,97.674 292.52,86.871 279.194,86.871 Z" />
            <path d="M259.115,105.431 L253.8,105.431 C253.72,104.99 253.574,104.58 253.362,104.201 C253.15,103.823 252.874,103.491 252.535,103.204 C252.195,102.918 251.793,102.696 251.329,102.538 C250.865,102.38 250.345,102.302 249.768,102.302 C248.325,102.302 247.215,102.814 246.44,103.84 C245.664,104.865 245.276,106.317 245.276,108.194 L245.276,110.857 C245.276,111.995 245.428,113.018 245.733,113.926 C246.038,114.835 246.53,115.554 247.21,116.083 C247.889,116.612 248.792,116.876 249.917,116.876 C250.835,116.876 251.597,116.71 252.204,116.376 C252.811,116.042 253.265,115.604 253.565,115.06 C253.866,114.517 254.017,113.93 254.017,113.299 L254.017,112.311 L250.06,112.311 L250.06,108.468 L259.174,108.468 L259.174,112.889 C259.174,113.993 258.992,115.054 258.627,116.069 C258.263,117.085 257.701,117.989 256.941,118.781 C256.181,119.572 255.209,120.199 254.027,120.661 C252.845,121.122 251.437,121.353 249.804,121.353 C248.068,121.353 246.566,121.088 245.298,120.558 C244.03,120.027 242.988,119.288 242.17,118.34 C241.352,117.392 240.745,116.281 240.349,115.008 C239.953,113.734 239.755,112.358 239.755,110.878 L239.755,108.14 C239.755,106.116 240.144,104.329 240.921,102.779 C241.697,101.229 242.835,100.016 244.334,99.14 C245.832,98.263 247.663,97.825 249.824,97.825 C251.307,97.825 252.615,98.031 253.748,98.444 C254.881,98.857 255.836,99.421 256.613,100.137 C257.389,100.852 257.986,101.665 258.403,102.575 C258.82,103.485 259.057,104.437 259.115,105.431 Z" />
            <path d="M269.672,120.936 L264.205,120.936 L264.205,98.231 L269.672,98.231 Z" />
            <path d="M281.089,120.936 L275.623,120.936 L275.623,98.231 L290.744,98.231 L290.744,102.622 L281.089,102.622 L281.089,108.107 L289.868,108.107 L289.868,112.368 L281.089,112.368 Z" />
        </g>
        <g id="Regular-S">
            <path d="M479.194,81.194 C495.655,81.194 509,94.538 509,111 C509,127.462 495.655,140.806 479.194,140.806 L450.806,140.806 C434.345,140.806 421,127.462 421,111 C421,94.538 434.345,81.194 450.806,81.194 L479.194,81.194 Z M479.194,86.871 L450.806,86.871 C437.48,86.871 426.677,97.674 426.677,111 C426.677,124.326 437.48,135.129 450.806,135.129 L479.194,135.129 C492.52,135.129 503.323,124.326 503.323,111 C503.323,97.674 492.52,86.871 479.194,86.871 Z" />
            <path d="M459.115,105.431 L453.8,105.431 C453.72,104.99 453.574,104.58 453.362,104.201 C453.15,103.823 452.874,103.491 452.535,103.204 C452.195,102.918 451.793,102.696 451.329,102.538 C450.865,102.38 450.345,102.302 449.768,102.302 C448.325,102.302 447.215,102.814 446.44,103.84 C445.664,104.865 445.276,106.317 445.276,108.194 L445.276,110.857 C445.276,111.995 445.428,113.018 445.733,113.926 C446.038,114.835 446.53,115.554 447.21,116.083 C447.889,116.612 448.792,116.876 449.917,116.876 C450.835,116.876 451.597,116.71 452.204,116.376 C452.811,116.042 453.265,115.604 453.565,115.06 C453.866,114.517 454.017,113.93 454.017,113.299 L454.017,112.311 L450.06,112.311 L450.06,108.468 L459.174,108.468 L459.174,112.889 C459.174,113.993 458.992,115.054 458.627,116.069 C458.263,117.085 457.701,117.989 456.941,118.781 C456.181,119.572 455.209,120.199 454.027,120.661 C452.845,121.122 451.437,121.353 449.804,121.353 C448.068,121.353 446.566,121.088 445.298,120.558 C444.03,120.027 442.988,119.288 442.17,118.34 C441.352,117.392 440.745,116.281 440.349,115.008 C439.953,113.734 439.755,112.358 439.755,110.878 L439.755,108.14 C439.755,106.116 440.144,104.329 440.921,102.779 C441.697,101.229 442.835,100.016 444.334,99.14 C445.832,98.263 447.663,97.825 449.824,97.825 C451.307,97.825 452.615,98.031 453.748,98.444 C454.881,98.857 455.836,99.421 456.613,100.137 C457.389,100.852 457.986,101.665 458.403,102.575 C458.82,103.485 459.057,104.437 459.115,105.431 Z" />
            <path d="M469.672,120.936 L464.205,120.936 L464.205,98.231 L469.672,98.231 Z" />
            <path d="M481.089,120.936 L475.623,120.936 L475.623,98.231 L490.744,98.231 L490.744,102.622 L481.089,102.622 L481.089,108.107 L489.868,108.107 L489.868,112.368 L481.089,112.368 Z" />
        </g>
        <g id="Black-S">
            <path d="M679.194,81.194 C695.655,81.194 709,94.538 709,111 C709,127.462 695.655,140.806 679.194,140.806 L650.806,140.806 C634.345,140.806 621,127.462 621,111 C621,94.538 634.345,81.194 650.806,81.194 L679.194,81.194 Z M679.194,86.871 L650.806,86.871 C637.48,86.871 626.677,97.674 626.677,111 C626.677,124.326 637.48,135.129 650.806,135.129 L679.194,135.129 C692.52,135.129 703.323,124.326 703.323,111 C703.323,97.674 692.52,86.871 679.194,86.871 Z" />
            <path d="M659.115,105.431 L653.8,105.431 C653.72,104.99 653.574,104.58 653.362,104.201 C653.15,103.823 652.874,103.491 652.535,103.204 C652.195,102.918 651.793,102.696 651.329,102.538 C650.865,102.38 650.345,102.302 649.768,102.302 C648.325,102.302 647.215,102.814 646.44,103.84 C645.664,104.865 645.276,106.317 645.276,108.194 L645.276,110.857 C645.276,111.995 645.428,113.018 645.733,113.926 C646.038,114.835 646.53,115.554 647.21,116.083 C647.889,116.612 648.792,116.876 649.917,116.876 C650.835,116.876 651.597,116.71 652.204,116.376 C652.811,116.042 653.265,115.604 653.565,115.06 C653.866,114.517 654.017,113.93 654.017,113.299 L654.017,112.311 L650.06,112.311 L650.06,108.468 L659.174,108.468 L659.174,112.889 C659.174,113.993 658.992,115.054 658.627,116.069 C658.263,117.085 657.701,117.989 656.941,118.781 C656.181,119.572 655.209,120.199 654.027,120.661 C652.845,121.122 651.437,121.353 649.804,121.353 C648.068,121.353 646.566,121.088 645.298,120.558 C644.03,120.027 642.988,119.288 642.17,118.34 C641.352,117.392 640.745,116.281 640.349,115.008 C639.953,113.734 639.755,112.358 639.755,110.878 L639.755,108.14 C639.755,106.116 640.144,104.329 640.921,102.779 C641.697,101.229 642.835,100.016 644.334,99.14 C645.832,98.263 647.663,97.825 649.824,97.825 C651.307,97.825 652.615,98.031 653.748,98.444 C654.881,98.857 655.836,99.421 656.613,100.137 C657.389,100.852 657.986,101.665 658.403,102.575 C658.82,103.485 659.057,104.437 659.115,105.431 Z" />
            <path d="M669.672,120.936 L664.205,120.936 L664.205,98.231 L669.672,98.231 Z" />
            <path d="M681.089,120.936 L675.623,120.936 L675.623,98.231 L690.744,98.231 L690.744,102.622 L681.089,102.622 L681.089,108.107 L689.868,108.107 L689.868,112.368 L681.089,112.368 Z" />
        </g>
    </g>
</svg>