<?xml version="1.0" encoding="UTF-8"?>
<svg height="600" width="800" xmlns="http://www.w3.org/2000/svg" xmlns:xlink="http://www.w3.org/1999/xlink">
    <g id="Notes" font-family="'LucidaGrande', 'Lucida Grande', sans-serif" font-size="13">
        <rect fill="white" height="600.0" width="800.0" x="0.0" y="0.0" />
        <g font-size="13">
            <text x="18.0" y="176.0">Small</text>
            <text x="18.0" y="376.0">Medium</text>
            <text x="18.0" y="576.0">Large</text>
        </g>
        <g font-size="9">
            <text x="250.0" y="30.0">Ultralight</text>
            <text x="450.0" y="30.0">Regular</text>
            <text x="650.0" y="30.0">Black</text>
            <text id="template-version" fill="#505050" text-anchor="end" x="785.0" y="575.0">Template v.3.0</text>
            <a href="https://github.com/swhitty/SwiftDraw">
                <text fill="#505050" text-anchor="end" x="785.0" y="590.0">https://github.com/swhitty/SwiftDraw</text>
            </a>
        </g>
    </g>
    <g id="Guides" stroke="rgb(39, 170, 225)" stroke-width="0.5">
        <path id="Capline-S" d="M18,76 l800,0" />
        <path id="H-reference" d="M85,145.755 L87.685,145.755 L113.369,79.287 L114.052,79.287 L114.052,76 L112.148,76 L85,145.755 Z M95.693,121.536 L130.996,121.536 L130.263,119.313 L96.474,119.313 L95.693,121.536 Z M139.15,145.755 L141.787,145.755 L114.638,76 L113.466,76 L113.466,79.287 L139.15,145.755 Z" stroke="none" />
        <path id="Baseline-S" d="M18,146 l800,0" />
        <path id="left-margin-Ultralight-S" d="M220,56 l0,110" />
        <path id="right-margin-Ultralight-S" d="M310,56 l0,110" />
        <path id="left-margin-Regular-S" d="M420,56 l0,110" />
        <path id="right-margin-Regular-S" d="M510,56 l0,110" />
        <path id="left-margin-Black-S" d="M620,56 l0,110" />
        <path id="right-margin-Black-S" d="M710,56 l0,110" />
        <path id="Capline-M" d="M18,276 l800,0" />
        <path id="Baseline-M" d="M18,346 l800,0" />
        <path id="Capline-L" d="M18,476 l800,0" />
        <path id="Baseline-L" d="M18,546 l800,0" />
    </g>
    <g id="Symbols">
        <g id="Ultralight-S">
            <path d="M277.597,76 C277.707,76 277.816,76 277.923,76 L278.848,76 C282.693,76.005 284.469,76.033 286.062,76.137 L286.428,76.162 C286.549,76.171 286.67,76.181 286.792,76.191 C289.209,76.388 290.901,76.787 292.352,77.526 C294.986,78.868 297.128,81.01 298.47,83.644 C299.209,85.095 299.607,86.787 299.805,89.204 C299.808,89.244 299.812,89.285 299.815,89.325 L299.833,89.568 C299.836,89.608 299.839,89.649 299.842,89.689 L299.859,89.933 C299.963,91.526 299.991,93.302 299.996,97.148 L299.996,98.073 L299.996,98.399 L299.996,112.398 C299.996,112.53 299.996,112.661 299.996,112.791 L299.996,113.921 C299.99,120.357 299.944,123.025 299.755,125.605 L299.733,125.897 C299.725,125.995 299.718,126.092 299.71,126.19 C299.413,129.816 298.816,132.354 297.707,134.53 C295.694,138.481 292.481,141.694 288.53,143.707 C286.354,144.816 283.816,145.413 280.19,145.71 C277.406,145.937 274.842,145.989 267.921,145.996 L266.791,145.996 L266.398,145.996 L252.399,145.996 C252.289,145.996 252.18,145.996 252.073,145.996 L251.148,145.996 C247.302,145.991 245.526,145.963 243.933,145.859 L243.689,145.842 C243.649,145.839 243.608,145.836 243.568,145.833 L243.325,145.815 L243.204,145.805 C240.787,145.607 239.095,145.209 237.644,144.47 C235.01,143.128 232.868,140.986 231.526,138.352 C230.787,136.901 230.388,135.209 230.191,132.792 C230.181,132.67 230.171,132.549 230.162,132.428 L230.137,132.063 C230.033,130.469 230.005,128.693 230,124.848 L230,123.923 L230,123.597 L230,98.399 C230,98.289 230,98.18 230,98.073 L230,97.148 C230.005,93.302 230.033,91.526 230.137,89.933 L230.162,89.568 C230.171,89.447 230.181,89.326 230.191,89.204 C230.388,86.787 230.787,85.095 231.526,83.644 C232.868,81.01 235.01,78.868 237.644,77.526 C239.095,76.787 240.787,76.388 243.204,76.191 C243.326,76.181 243.447,76.171 243.568,76.162 L243.933,76.137 C245.526,76.033 247.302,76.005 251.148,76 L252.073,76 L252.399,76 L277.597,76 Z M278.835,80.9 L251.161,80.9 C247.359,80.905 245.654,80.932 244.168,81.032 L243.941,81.048 C243.828,81.056 243.715,81.065 243.603,81.074 C241.77,81.224 240.67,81.483 239.868,81.891 C238.156,82.764 236.764,84.156 235.891,85.868 C235.483,86.67 235.224,87.77 235.074,89.603 C235.065,89.715 235.056,89.828 235.048,89.941 L235.032,90.168 C234.932,91.654 234.905,93.359 234.9,97.161 L234.9,124.835 C234.905,128.636 234.932,130.342 235.032,131.828 L235.048,132.055 C235.056,132.168 235.065,132.28 235.074,132.393 C235.224,134.226 235.483,135.325 235.891,136.128 C236.764,137.84 238.156,139.232 239.868,140.104 C240.67,140.513 241.77,140.772 243.603,140.922 C243.715,140.931 243.828,140.939 243.941,140.948 L244.168,140.964 C245.654,141.064 247.359,141.091 251.161,141.095 L252.076,141.096 L252.399,141.096 L266.398,141.096 C266.528,141.096 266.656,141.096 266.783,141.096 L267.891,141.096 C273.963,141.09 276.608,141.049 278.966,140.888 L279.242,140.869 C279.425,140.855 279.608,140.841 279.791,140.826 C282.833,140.578 284.778,140.12 286.306,139.341 C289.335,137.798 291.798,135.335 293.341,132.306 C294.12,130.778 294.578,128.833 294.826,125.791 C294.841,125.608 294.855,125.425 294.869,125.242 L294.888,124.966 C295.049,122.608 295.09,119.963 295.096,113.891 L295.096,112.783 L295.096,112.398 L295.096,98.399 C295.096,98.29 295.096,98.182 295.096,98.076 L295.095,97.161 C295.091,93.359 295.064,91.654 294.964,90.168 L294.948,89.941 C294.939,89.828 294.931,89.715 294.922,89.603 C294.772,87.77 294.513,86.67 294.104,85.868 C293.232,84.156 291.84,82.764 290.128,81.891 C289.325,81.483 288.226,81.224 286.393,81.074 C286.28,81.065 286.168,81.056 286.055,81.048 L285.828,81.032 C284.342,80.932 282.636,80.905 278.835,80.9 Z" />
            <path d="M300,117.997 L299.993,120.454 C299.978,126.163 299.847,128.318 299.28,130.432 C297.339,137.678 291.678,143.339 284.432,145.28 C282.318,145.847 280.163,145.978 274.454,145.993 L271.997,146 L271.997,143.543 L271.997,140.396 C271.997,140.286 271.997,140.178 271.997,140.07 L271.998,139.145 C272.002,135.299 272.03,133.524 272.134,131.931 L272.151,131.687 C272.154,131.646 272.157,131.606 272.16,131.565 L272.178,131.323 L272.188,131.201 C272.386,128.784 272.784,127.092 273.523,125.641 C274.865,123.007 277.007,120.865 279.641,119.523 C281.092,118.784 282.784,118.386 285.201,118.188 C285.242,118.185 285.282,118.182 285.323,118.178 L285.565,118.16 C285.606,118.157 285.646,118.154 285.687,118.151 L285.931,118.134 C287.524,118.03 289.299,118.002 293.145,117.998 L294.07,117.997 L294.396,117.997 L300,117.997 Z M295.075,122.897 L293.158,122.898 C289.357,122.902 287.651,122.929 286.165,123.029 L285.938,123.045 C285.825,123.054 285.713,123.062 285.6,123.072 C283.767,123.221 282.668,123.48 281.866,123.889 C280.153,124.761 278.761,126.153 277.889,127.866 C277.48,128.668 277.221,129.767 277.072,131.6 C277.062,131.713 277.054,131.825 277.045,131.938 L277.029,132.165 C276.93,133.651 276.902,135.357 276.898,139.158 L276.897,141.075 L277.018,141.074 C280.306,141.028 281.821,140.894 283.068,140.572 L283.164,140.547 C288.719,139.059 293.059,134.719 294.547,129.164 C294.887,127.898 295.026,126.39 295.074,123.018 L295.075,122.897 Z" />
        </g>
        <g id="Regular-S">
            <path d="M477.597,76 C477.707,76 477.816,76 477.923,76 L478.848,76 C482.693,76.005 484.469,76.033 486.062,76.137 L486.428,76.162 C486.549,76.171 486.67,76.181 486.792,76.191 C489.209,76.388 490.901,76.787 492.352,77.526 C494.986,78.868 497.128,81.01 498.47,83.644 C499.209,85.095 499.607,86.787 499.805,89.204 C499.808,89.244 499.812,89.285 499.815,89.325 L499.833,89.568 C499.836,89.608 499.839,89.649 499.842,89.689 L499.859,89.933 C499.963,91.526 499.991,93.302 499.996,97.148 L499.996,98.073 L499.996,98.399 L499.996,112.398 C499.996,112.53 499.996,112.661 499.996,112.791 L499.996,113.921 C499.99,120.357 499.944,123.025 499.755,125.605 L499.733,125.897 C499.725,125.995 499.718,126.092 499.71,126.19 C499.413,129.816 498.816,132.354 497.707,134.53 C495.694,138.481 492.481,141.694 488.53,143.707 C486.354,144.816 483.816,145.413 480.19,145.71 C477.406,145.937 474.842,145.989 467.921,145.996 L466.791,145.996 L466.398,145.996 L452.399,145.996 C452.289,145.996 452.18,145.996 452.073,145.996 L451.148,145.996 C447.302,145.991 445.526,145.963 443.933,145.859 L443.689,145.842 C443.649,145.839 443.608,145.836 443.568,145.833 L443.325,145.815 L443.204,145.805 C440.787,145.607 439.095,145.209 437.644,144.47 C435.01,143.128 432.868,140.986 431.526,138.352 C430.787,136.901 430.388,135.209 430.191,132.792 C430.181,132.67 430.171,132.549 430.162,132.428 L430.137,132.063 C430.033,130.469 430.005,128.693 430,124.848 L430,123.923 L430,123.597 L430,98.399 C430,98.289 430,98.18 430,98.073 L430,97.148 C430.005,93.302 430.033,91.526 430.137,89.933 L430.162,89.568 C430.171,89.447 430.181,89.326 430.191,89.204 C430.388,86.787 430.787,85.095 431.526,83.644 C432.868,81.01 435.01,78.868 437.644,77.526 C439.095,76.787 440.787,76.388 443.204,76.191 C443.326,76.181 443.447,76.171 443.568,76.162 L443.933,76.137 C445.526,76.033 447.302,76.005 451.148,76 L452.073,76 L452.399,76 L477.597,76 Z M478.835,80.9 L451.161,80.9 C447.359,80.905 445.654,80.932 444.168,81.032 L443.941,81.048 C443.828,81.056 443.715,81.065 443.603,81.074 C441.77,81.224 440.67,81.483 439.868,81.891 C438.156,82.764 436.764,84.156 435.891,85.868 C435.483,86.67 435.224,87.77 435.074,89.603 C435.065,89.715 435.056,89.828 435.048,89.941 L435.032,90.168 C434.932,91.654 434.905,93.359 434.9,97.161 L434.9,124.835 C434.905,128.636 434.932,130.342 435.032,131.828 L435.048,132.055 C435.056,132.168 435.065,132.28 435.074,132.393 C435.224,134.226 435.483,135.325 435.891,136.128 C436.764,137.84 438.156,139.232 439.868,140.104 C440.67,140.513 441.77,140.772 443.603,140.922 C443.715,140.931 443.828,140.939 443.941,140.948 L444.168,140.964 C445.654,141.064 447.359,141.091 451.161,141.095 L452.076,141.096 L452.399,141.096 L466.398,141.096 C466.528,141.096 466.656,141.096 466.783,141.096 L467.891,141.096 C473.963,141.09 476.608,141.049 478.966,140.888 L479.242,140.869 C479.425,140.855 479.608,140.841 479.791,140.826 C482.833,140.578 484.778,140.12 486.306,139.341 C489.335,137.798 491.798,135.335 493.341,132.306 C494.12,130.778 494.578,128.833 494.826,125.791 C494.841,125.608 494.855,125.425 494.869,125.242 L494.888,124.966 C495.049,122.608 495.09,119.963 495.096,113.891 L495.096,112.783 L495.096,112.398 L495.096,98.399 C495.096,98.29 495.096,98.182 495.096,98.076 L495.095,97.161 C495.091,93.359 495.064,91.654 494.964,90.168 L494.948,89.941 C494.939,89.828 494.931,89.715 494.922,89.603 C494.772,87.77 494.513,86.67 494.104,85.868 C493.232,84.156 491.84,82.764 490.128,81.891 C489.325,81.483 488.226,81.224 486.393,81.074 C486.28,81.065 486.168,81.056 486.055,81.048 L485.828,81.032 C484.342,80.932 482.636,80.905 478.835,80.9 Z" />
            <path d="M500,117.997 L499.993,120.454 C499.978,126.163 499.847,128.318 499.28,130.432 C497.339,137.678 491.678,143.339 484.432,145.28 C482.318,145.847 480.163,145.978 474.454,145.993 L471.997,146 L471.997,143.543 L471.997,140.396 C471.997,140.286 471.997,140.178 471.997,140.07 L471.998,139.145 C472.002,135.299 472.03,133.524 472.134,131.931 L472.151,131.687 C472.154,131.646 472.157,131.606 472.16,131.565 L472.178,131.323 L472.188,131.201 C472.386,128.784 472.784,127.092 473.523,125.641 C474.865,123.007 477.007,120.865 479.641,119.523 C481.092,118.784 482.784,118.386 485.201,118.188 C485.242,118.185 485.282,118.182 485.323,118.178 L485.565,118.16 C485.606,118.157 485.646,118.154 485.687,118.151 L485.931,118.134 C487.524,118.03 489.299,118.002 493.145,117.998 L494.07,117.997 L494.396,117.997 L500,117.997 Z M495.075,122.897 L493.158,122.898 C489.357,122.902 487.651,122.929 486.165,123.029 L485.938,123.045 C485.825,123.054 485.713,123.062 485.6,123.072 C483.767,123.221 482.668,123.48 481.866,123.889 C480.153,124.761 478.761,126.153 477.889,127.866 C477.48,128.668 477.221,129.767 477.072,131.6 C477.062,131.713 477.054,131.825 477.045,131.938 L477.029,132.165 C476.93,133.651 476.902,135.357 476.898,139.158 L476.897,141.075 L477.018,141.074 C480.306,141.028 481.821,140.894 483.068,140.572 L483.164,140.547 C488.719,139.059 493.059,134.719 494.547,129.164 C494.887,127.898 495.026,126.39 495.074,123.018 L495.075,122.897 Z" />
        </g>
        <g id="Black-S">
            <path d="M677.597,76 C677.707,76 677.816,76 677.923,76 L678.848,76 C682.693,76.005 684.469,76.033 686.062,76.137 L686.428,76.162 C686.549,76.171 686.67,76.181 686.792,76.191 C689.209,76.388 690.901,76.787 692.352,77.526 C694.986,78.868 697.128,81.01 698.47,83.644 C699.209,85.095 699.607,86.787 699.805,89.204 C699.808,89.244 699.812,89.285 699.815,89.325 L699.833,89.568 C699.836,89.608 699.839,89.649 699.842,89.689 L699.859,89.933 C699.963,91.526 699.991,93.302 699.996,97.148 L699.996,98.073 L699.996,98.399 L699.996,112.398 C699.996,112.53 699.996,112.661 699.996,112.791 L699.996,113.921 C699.99,120.357 699.944,123.025 699.755,125.605 L699.733,125.897 C699.725,125.995 699.718,126.092 699.71,126.19 C699.413,129.816 698.816,132.354 697.707,134.53 C695.694,138.481 692.481,141.694 688.53,143.707 C686.354,144.816 683.816,145.413 680.19,145.71 C677.406,145.937 674.842,145.989 667.921,145.996 L666.791,145.996 L666.398,145.996 L652.399,145.996 C652.289,145.996 652.18,145.996 652.073,145.996 L651.148,145.996 C647.302,145.991 645.526,145.963 643.933,145.859 L643.689,145.842 C643.649,145.839 643.608,145.836 643.568,145.833 L643.325,145.815 L643.204,145.805 C640.787,145.607 639.095,145.209 637.644,144.47 C635.01,143.128 632.868,140.986 631.526,138.352 C630.787,136.901 630.388,135.209 630.191,132.792 C630.181,132.67 630.171,132.549 630.162,132.428 L630.137,132.063 C630.033,130.469 630.005,128.693 630,124.848 L630,123.923 L630,123.597 L630,98.399 C630,98.289 630,98.18 630,98.073 L630,97.148 C630.005,93.302 630.033,91.526 630.137,89.933 L630.162,89.568 C630.171,89.447 630.181,89.326 630.191,89.204 C630.388,86.787 630.787,85.095 631.526,83.644 C632.868,81.01 635.01,78.868 637.644,77.526 C639.095,76.787 640.787,76.388 643.204,76.191 C643.326,76.181 643.447,76.171 643.568,76.162 L643.933,76.137 C645.526,76.033 647.302,76.005 651.148,76 L652.073,76 L652.399,76 L677.597,76 Z M678.835,80.9 L651.161,80.9 C647.359,80.905 645.654,80.932 644.168,81.032 L643.941,81.048 C643.828,81.056 643.715,81.065 643.603,81.074 C641.77,81.224 640.67,81.483 639.868,81.891 C638.156,82.764 636.764,84.156 635.891,85.868 C635.483,86.67 635.224,87.77 635.074,89.603 C635.065,89.715 635.056,89.828 635.048,89.941 L635.032,90.168 C634.932,91.654 634.905,93.359 634.9,97.161 L634.9,124.835 C634.905,128.636 634.932,130.342 635.032,131.828 L635.048,132.055 C635.056,132.168 635.065,132.28 635.074,132.393 C635.224,134.226 635.483,135.325 635.891,136.128 C636.764,137.84 638.156,139.232 639.868,140.104 C640.67,140.513 641.77,140.772 643.603,140.922 C643.715,140.931 643.828,140.939 643.941,140.948 L644.168,140.964 C645.654,141.064 647.359,141.091 651.161,141.095 L652.076,141.096 L652.399,141.096 L666.398,141.096 C666.528,141.096 666.656,141.096 666.783,141.096 L667.891,141.096 C673.963,141.09 676.609,141.049 678.966,140.888 L679.242,140.869 C679.425,140.855 679.608,140.841 679.791,140.826 C682.833,140.578 684.778,140.12 686.306,139.341 C689.335,137.798 691.798,135.335 693.341,132.306 C694.12,130.778 694.578,128.833 694.826,125.791 C694.841,125.608 694.855,125.425 694.869,125.242 L694.888,124.966 C695.049,122.608 695.09,119.963 695.096,113.891 L695.096,112.783 L695.096,112.398 L695.096,98.399 C695.096,98.29 695.096,98.182 695.096,98.076 L695.095,97.161 C695.091,93.359 695.064,91.654 694.964,90.168 L694.948,89.941 C694.939,89.828 694.931,89.715 694.922,89.603 C694.772,87.77 694.513,86.67 694.104,85.868 C693.232,84.156 691.84,82.764 690.128,81.891 C689.325,81.483 688.226,81.224 686.393,81.074 C686.28,81.065 686.168,81.056 686.055,81.048 L685.828,81.032 C684.342,80.932 682.636,80.905 678.835,80.9 Z" />
            <path d="M700,117.997 L699.993,120.454 C699.978,126.163 699.847,128.318 699.28,130.432 C697.339,137.678 691.678,143.339 684.432,145.28 C682.318,145.847 680.162,145.978 674.454,145.993 L671.997,146 L671.997,143.543 L671.997,140.396 C671.997,140.286 671.997,140.178 671.997,140.07 L671.998,139.145 C672.002,135.299 672.03,133.524 672.134,131.931 L672.151,131.687 C672.154,131.646 672.157,131.606 672.16,131.565 L672.178,131.323 L672.188,131.201 C672.386,128.784 672.784,127.092 673.523,125.641 C674.865,123.007 677.007,120.865 679.641,119.523 C681.092,118.784 682.784,118.386 685.201,118.188 C685.242,118.185 685.282,118.182 685.323,118.178 L685.565,118.16 C685.606,118.157 685.646,118.154 685.687,118.151 L685.931,118.134 C687.524,118.03 689.299,118.002 693.145,117.998 L694.07,117.997 L694.396,117.997 L700,117.997 Z M695.075,122.897 L693.158,122.898 C689.357,122.902 687.651,122.929 686.165,123.029 L685.938,123.045 C685.825,123.054 685.713,123.062 685.6,123.072 C683.767,123.221 682.668,123.48 681.866,123.889 C680.153,124.761 678.761,126.153 677.889,127.866 C677.48,128.668 677.221,129.767 677.072,131.6 C677.062,131.713 677.054,131.825 677.045,131.938 L677.029,132.165 C676.93,133.651 676.902,135.357 676.898,139.158 L676.897,141.075 L677.018,141.074 C680.306,141.028 681.821,140.894 683.068,140.572 L683.164,140.547 C688.719,139.059 693.059,134.719 694.547,129.164 C694.887,127.898 695.026,126.39 695.074,123.018 L695.075,122.897 Z" />
        </g>
    </g>
</svg>