<?xml version="1.0" encoding="UTF-8"?>
<svg height="600" width="800" xmlns="http://www.w3.org/2000/svg" xmlns:xlink="http://www.w3.org/1999/xlink">
    <g id="Notes" font-family="'LucidaGrande', 'Lucida Grande', sans-serif" font-size="13">
        <rect fill="white" height="600.0" width="800.0" x="0.0" y="0.0" />
        <g font-size="13">
            <text x="18.0" y="176.0">Small</text>
            <text x="18.0" y="376.0">Medium</text>
            <text x="18.0" y="576.0">Large</text>
        </g>
        <g font-size="9">
            <text x="250.0" y="30.0">Ultralight</text>
            <text x="450.0" y="30.0">Regular</text>
            <text x="650.0" y="30.0">Black</text>
            <text id="template-version" fill="#505050" text-anchor="end" x="785.0" y="575.0">Template v.3.0</text>
            <a href="https://github.com/swhitty/SwiftDraw">
                <text fill="#505050" text-anchor="end" x="785.0" y="590.0">https://github.com/swhitty/SwiftDraw</text>
            </a>
        </g>
    </g>
    <g id="Guides" stroke="rgb(39, 170, 225)" stroke-width="0.5">
        <path id="Capline-S" d="M18,76 l800,0" />
        <path id="H-reference" d="M85,145.755 L87.685,145.755 L113.369,79.287 L114.052,79.287 L114.052,76 L112.148,76 L85,145.755 Z M95.693,121.536 L130.996,121.536 L130.263,119.313 L96.474,119.313 L95.693,121.536 Z M139.15,145.755 L141.787,145.755 L114.638,76 L113.466,76 L113.466,79.287 L139.15,145.755 Z" stroke="none" />
        <path id="Baseline-S" d="M18,146 l800,0" />
        <path id="left-margin-Ultralight-S" d="M211,56 l0,110" />
        <path id="right-margin-Ultralight-S" d="M319,56 l0,110" />
        <path id="left-margin-Regular-S" d="M411,56 l0,110" />
        <path id="right-margin-Regular-S" d="M519,56 l0,110" />
        <path id="left-margin-Black-S" d="M611,56 l0,110" />
        <path id="right-margin-Black-S" d="M719,56 l0,110" />
        <path id="Capline-M" d="M18,276 l800,0" />
        <path id="Baseline-M" d="M18,346 l800,0" />
        <path id="Capline-L" d="M18,476 l800,0" />
        <path id="Baseline-L" d="M18,546 l800,0" />
    </g>
    <g id="Symbols">
        <g id="Ultralight-S">
            <path d="M279.667,81.667 C295.867,81.667 309,94.8 309,111 C309,127.2 295.867,140.333 279.667,140.333 L250.333,140.333 C234.133,140.333 221,127.2 221,111 C221,94.8 234.133,81.667 250.333,81.667 L279.667,81.667 Z M279.667,84.6 L250.333,84.6 C235.753,84.6 223.933,96.42 223.933,111 C223.933,125.58 235.753,137.4 250.333,137.4 L279.667,137.4 C294.247,137.4 306.067,125.58 306.067,111 C306.067,96.42 294.247,84.6 279.667,84.6 Z" />
            <path d="M257.521,107.142 L254.349,107.142 C254.19,106.508 253.951,105.941 253.631,105.439 C253.31,104.937 252.914,104.507 252.442,104.151 C251.971,103.795 251.433,103.524 250.83,103.339 C250.228,103.154 249.565,103.061 248.842,103.061 C246.894,103.061 245.37,103.745 244.27,105.112 C243.171,106.479 242.621,108.38 242.621,110.815 L242.621,114.004 C242.621,115.662 242.869,117.077 243.364,118.251 C243.86,119.425 244.579,120.323 245.522,120.945 C246.466,121.568 247.604,121.88 248.938,121.88 C250.191,121.88 251.237,121.661 252.077,121.225 C252.916,120.788 253.547,120.189 253.969,119.427 C254.391,118.666 254.602,117.798 254.602,116.823 L254.602,114.623 L248.667,114.623 L248.667,111.925 L257.676,111.925 L257.676,116.76 C257.676,117.896 257.485,118.944 257.102,119.904 C256.719,120.865 256.157,121.704 255.416,122.421 C254.675,123.137 253.765,123.694 252.686,124.092 C251.607,124.49 250.367,124.689 248.965,124.689 C247.449,124.689 246.102,124.448 244.922,123.966 C243.742,123.485 242.745,122.786 241.932,121.87 C241.118,120.954 240.501,119.834 240.079,118.512 C239.657,117.19 239.447,115.688 239.447,114.007 L239.447,110.806 C239.447,108.652 239.826,106.785 240.584,105.206 C241.342,103.626 242.429,102.406 243.844,101.544 C245.26,100.683 246.948,100.252 248.909,100.252 C250.093,100.252 251.177,100.418 252.16,100.75 C253.144,101.082 254.01,101.554 254.759,102.166 C255.507,102.778 256.116,103.505 256.585,104.347 C257.054,105.189 257.366,106.121 257.521,107.142 Z" />
            <path d="M267.088,124.2 L263.922,124.2 L263.922,100.739 L267.088,100.739 Z" />
            <path d="M277.431,124.2 L274.265,124.2 L274.265,100.739 L288.235,100.739 L288.235,103.535 L277.431,103.535 L277.431,111.372 L287.339,111.372 L287.339,114.148 L277.431,114.148 Z" />
        </g>
        <g id="Regular-S">
            <path d="M479.667,81.667 C495.867,81.667 509,94.8 509,111 C509,127.2 495.867,140.333 479.667,140.333 L450.333,140.333 C434.133,140.333 421,127.2 421,111 C421,94.8 434.133,81.667 450.333,81.667 L479.667,81.667 Z M479.667,84.6 L450.333,84.6 C435.753,84.6 423.933,96.42 423.933,111 C423.933,125.58 435.753,137.4 450.333,137.4 L479.667,137.4 C494.247,137.4 506.067,125.58 506.067,111 C506.067,96.42 494.247,84.6 479.667,84.6 Z" />
            <path d="M457.521,107.142 L454.349,107.142 C454.19,106.508 453.951,105.941 453.631,105.439 C453.31,104.937 452.914,104.507 452.442,104.151 C451.971,103.795 451.433,103.524 450.83,103.339 C450.228,103.154 449.565,103.061 448.842,103.061 C446.894,103.061 445.37,103.745 444.27,105.112 C443.171,106.479 442.621,108.38 442.621,110.815 L442.621,114.004 C442.621,115.662 442.869,117.077 443.364,118.251 C443.86,119.425 444.579,120.323 445.522,120.945 C446.466,121.568 447.604,121.88 448.938,121.88 C450.191,121.88 451.237,121.661 452.077,121.225 C452.916,120.788 453.547,120.189 453.969,119.427 C454.391,118.666 454.602,117.798 454.602,116.823 L454.602,114.623 L448.667,114.623 L448.667,111.925 L457.676,111.925 L457.676,116.76 C457.676,117.896 457.485,118.944 457.102,119.904 C456.719,120.865 456.157,121.704 455.416,122.421 C454.675,123.137 453.765,123.694 452.686,124.092 C451.607,124.49 450.367,124.689 448.965,124.689 C447.449,124.689 446.102,124.448 444.922,123.966 C443.742,123.485 442.745,122.786 441.932,121.87 C441.118,120.954 440.501,119.834 440.079,118.512 C439.657,117.19 439.447,115.688 439.447,114.007 L439.447,110.806 C439.447,108.652 439.826,106.785 440.584,105.206 C441.342,103.626 442.429,102.406 443.844,101.544 C445.26,100.683 446.948,100.252 448.909,100.252 C450.093,100.252 451.177,100.418 452.16,100.75 C453.144,101.082 454.01,101.554 454.759,102.166 C455.507,102.778 456.116,103.505 456.585,104.347 C457.054,105.189 457.366,106.121 457.521,107.142 Z" />
            <path d="M467.088,124.2 L463.922,124.2 L463.922,100.739 L467.088,100.739 Z" />
            <path d="M477.431,124.2 L474.265,124.2 L474.265,100.739 L488.235,100.739 L488.235,103.535 L477.431,103.535 L477.431,111.372 L487.339,111.372 L487.339,114.148 L477.431,114.148 Z" />
        </g>
        <g id="Black-S">
            <path d="M679.667,81.667 C695.867,81.667 709,94.8 709,111 C709,127.2 695.867,140.333 679.667,140.333 L650.333,140.333 C634.133,140.333 621,127.2 621,111 C621,94.8 634.133,81.667 650.333,81.667 L679.667,81.667 Z M679.667,84.6 L650.333,84.6 C635.753,84.6 623.933,96.42 623.933,111 C623.933,125.58 635.753,137.4 650.333,137.4 L679.667,137.4 C694.247,137.4 706.067,125.58 706.067,111 C706.067,96.42 694.247,84.6 679.667,84.6 Z" />
            <path d="M657.521,107.142 L654.349,107.142 C654.19,106.508 653.951,105.941 653.631,105.439 C653.31,104.937 652.914,104.507 652.442,104.151 C651.971,103.795 651.433,103.524 650.83,103.339 C650.228,103.154 649.565,103.061 648.842,103.061 C646.894,103.061 645.37,103.745 644.27,105.112 C643.171,106.479 642.621,108.38 642.621,110.815 L642.621,114.004 C642.621,115.662 642.869,117.077 643.364,118.251 C643.86,119.425 644.579,120.323 645.522,120.945 C646.466,121.568 647.604,121.88 648.938,121.88 C650.191,121.88 651.237,121.661 652.077,121.225 C652.916,120.788 653.547,120.189 653.969,119.427 C654.391,118.666 654.602,117.798 654.602,116.823 L654.602,114.623 L648.667,114.623 L648.667,111.925 L657.676,111.925 L657.676,116.76 C657.676,117.896 657.485,118.944 657.102,119.904 C656.719,120.865 656.157,121.704 655.416,122.421 C654.675,123.137 653.765,123.694 652.686,124.092 C651.607,124.49 650.367,124.689 648.965,124.689 C647.449,124.689 646.102,124.448 644.922,123.966 C643.742,123.485 642.745,122.786 641.932,121.87 C641.118,120.954 640.501,119.834 640.079,118.512 C639.657,117.19 639.447,115.688 639.447,114.007 L639.447,110.806 C639.447,108.652 639.826,106.785 640.584,105.206 C641.342,103.626 642.429,102.406 643.844,101.544 C645.26,100.683 646.948,100.252 648.909,100.252 C650.093,100.252 651.177,100.418 652.16,100.75 C653.144,101.082 654.01,101.554 654.759,102.166 C655.507,102.778 656.116,103.505 656.585,104.347 C657.054,105.189 657.366,106.121 657.521,107.142 Z" />
            <path d="M667.088,124.2 L663.922,124.2 L663.922,100.739 L667.088,100.739 Z" />
            <path d="M677.431,124.2 L674.265,124.2 L674.265,100.739 L688.235,100.739 L688.235,103.535 L677.431,103.535 L677.431,111.372 L687.339,111.372 L687.339,114.148 L677.431,114.148 Z" />
        </g>
    </g>
</svg>